<?xml version="1.0" encoding="UTF-8"?>
<svg width="139px" height="128px" viewBox="0 0 139 128" version="1.1" xmlns="http://www.w3.org/2000/svg" xmlns:xlink="http://www.w3.org/1999/xlink">
    <!-- Generator: Sketch 64 (93537) - https://sketch.com -->
    <title>Group 10</title>
    <desc>Created with Sketch.</desc>
    <g id="Icons-and-elements" stroke="none" stroke-width="1" fill="none" fill-rule="evenodd">
        <g id="Group-10">
            <g id="freight-100-base">
                <g id="freight-100-2018-v-1">
                    <g id="Group_1624" fill-rule="nonzero">
                        <path d="M108.215795,6.11835583 C102.207719,2.23461066 95.2306159,0.114817077 88.0777969,0 L51.1032264,0 C43.9482995,0.101324846 36.9675526,2.22222547 30.9652281,6.11835583 C23.3462875,11.2417101 16.7930302,17.7941506 11.6683575,25.4128214 C-3.8894525,48.7846524 -3.8894525,79.2153476 11.6683575,102.587179 C16.791381,110.205438 23.3428377,116.757863 30.9599711,121.881644 C36.9488284,125.806654 43.9381729,127.930167 51.0979694,128 L88.0725399,128 C95.2274817,127.89877 102.208254,125.777862 108.210538,121.881644 C127.400752,108.86932 138.893617,87.1891012 138.893617,64.0008763 C138.893617,40.8126514 127.400752,19.1324326 108.210538,6.12010844" id="Path_3875" fill="#DEDEDE"></path>
                        <path d="M87.0469357,7.98932127 C92.9042893,8.05722299 98.6155671,9.82474883 103.485555,13.0767439 C120.660201,24.3536512 131.001934,43.5072854 131.001934,64.0390573 C131.001934,84.5708292 120.660201,103.724463 103.485555,115.001371 L103.483891,115.011343 C98.6025331,118.239439 92.898481,120.004729 87.045272,120.098765 L84.6329658,120.098765 C83.8055525,120.049239 82.9912847,119.868594 82.2206596,119.563597 L19.2361766,96.7159005 C17.6538523,96.1065289 16.3293187,94.9722539 15.4846245,93.5032288 C10.5694797,84.4581969 7.96159212,74.3423671 7.89168279,64.0506914 C7.91836836,53.7534416 10.5289381,43.6272079 15.4846245,34.598154 C16.3554932,33.1510082 17.6714945,32.0240399 19.2361766,31.3854823 L82.2223233,8.52448955 C82.9929483,8.21949248 83.8072162,8.03884778 84.6346295,7.98932127 L87.0469357,7.98932127 Z M24.3303018,102.152346 L67.1229501,117.775271 C67.584358,117.934779 67.902412,118.358432 67.9264977,118.845607 C67.83666,119.560273 67.4806369,120.009017 66.855101,120.009017 L66.855101,120.002369 L52.2032522,120.002369 C46.3352592,120.003365 40.6044089,118.229782 35.7646332,114.914946 C31.0131732,111.903767 26.7880091,108.134751 23.2572415,103.757851 C23.0444672,103.443764 22.9496025,103.06468 22.9893923,102.687514 C23.086705,102.431109 23.2872064,102.227235 23.5421055,102.125502 C23.7970047,102.02377 24.0829295,102.033508 24.3303018,102.152346 Z M66.855101,7.90123457 C67.3973936,7.97624117 67.8099782,8.4253809 67.8383237,8.97157112 C67.8142381,9.45874679 67.4961841,9.88239916 67.0347762,10.0419077 L24.3303018,25.6648326 C23.8119975,25.8688387 23.2243152,25.6342897 22.9893923,25.1296643 C22.9708523,24.7820165 23.064762,24.4376333 23.2572415,24.1474144 L23.2572415,24.1457524 C26.7905958,19.7713098 31.0153257,16.0026813 35.7646332,12.9886572 C40.6531312,9.77563895 46.3526861,8.01174111 52.2032522,7.90123457 L66.855101,7.90123457 Z" id="Combined-Shape" fill="#5B5C60"></path>
                    </g>
                    <path d="M56.91617,51.9517625 C56.7893305,51.6854888 56.7894134,51.3742479 56.9163949,51.1080451 C57.1441373,50.6306077 57.706876,50.4325464 58.1733071,50.6656628 L83.1241456,63.13578 C83.312341,63.2298378 83.4644531,63.3855426 83.5563385,63.5781809 C83.7840708,64.0556233 83.5905633,64.6316367 83.1241274,64.8647428 L58.1725184,77.3345639 C57.9124563,77.4645326 57.608399,77.4646143 57.3482702,77.3347854 C56.8817147,77.1019301 56.6879117,76.5260208 56.915399,76.0484561 L61.6459794,66.1175364 C62.2838161,64.7815605 62.283855,63.2201766 61.6470381,61.883258 L56.91617,51.9517625 Z" id="Shape" fill="#FDFDFD"></path>
                </g>
            </g>
        </g>
    </g>
</svg>